#N canvas 531 353 690 398 10;
#X obj 51 -48 ctlin;
#X obj 196 70 spigot;
#X obj 169 105 route;
#X obj 51 26 list prepend;
#X obj 270 -8 tgl 15 0 empty empty empty 17 7 0 10 -262144 -1 -1 0
1;
#X obj 270 12 expr 1 - $f1;
#X obj 51 48 spigot;
#X text 95 47 don't output while selecting;
#X text 212 -92 toggle on and use a cc to select it;
#X text 212 -70 toggle off to use it;
#X obj 169 145 stripnote;
#X obj 169 125 list prepend 5;
#X obj 169 165 t b;
#X obj 169 187 outlet;
#X connect 0 0 3 0;
#X connect 0 1 1 0;
#X connect 0 1 3 1;
#X connect 1 0 2 1;
#X connect 2 0 11 0;
#X connect 3 0 6 0;
#X connect 4 0 1 1;
#X connect 4 0 5 0;
#X connect 5 0 6 1;
#X connect 6 0 2 0;
#X connect 10 0 12 0;
#X connect 11 0 10 0;
#X connect 12 0 13 0;
#X coords 0 -1 1 1 60 20 1 227 -11;
