#N canvas 515 197 690 398 10;
#X obj 71 -48 ctlin;
#X obj 196 70 spigot;
#X obj 169 145 route;
#X obj 51 -4 list prepend;
#X obj 270 -8 tgl 15 0 empty empty empty 17 7 0 10 -262144 -1 -1 0
1;
#X obj 270 12 expr 1 - $f1;
#X obj 51 48 spigot;
#X text 95 47 don't output while selecting;
#X text 212 -92 toggle on and use a cc to select it;
#X text 212 -70 toggle off to use it;
#X obj 169 185 stripnote;
#X obj 169 165 list prepend 5;
#X obj 169 205 t b;
#X obj 169 227 outlet;
#X obj 304 156 outlet;
#X obj 304 135 f;
#X text 318 108 output ctl number when selected;
#X obj 304 44 select 1;
#X obj 470 -47 loadbang;
#X obj 470 -3 select 0;
#X obj 515 18 s \$0-cc-start;
#X obj 206 121 r \$0-cc-start;
#X obj 496 63 s \$0-msg-spigot;
#X msg 496 41 1;
#X obj 62 25 r \$0-msg-spigot;
#X obj 470 -25 f \$1;
#X connect 0 0 3 0;
#X connect 0 1 1 0;
#X connect 0 1 3 1;
#X connect 1 0 2 1;
#X connect 1 0 15 1;
#X connect 2 0 11 0;
#X connect 3 0 6 0;
#X connect 4 0 1 1;
#X connect 4 0 5 0;
#X connect 5 0 6 1;
#X connect 5 0 17 0;
#X connect 6 0 2 0;
#X connect 10 0 12 0;
#X connect 11 0 10 0;
#X connect 12 0 13 0;
#X connect 15 0 14 0;
#X connect 17 0 15 0;
#X connect 18 0 25 0;
#X connect 19 1 20 0;
#X connect 19 1 23 0;
#X connect 21 0 2 1;
#X connect 23 0 22 0;
#X connect 24 0 6 1;
#X connect 25 0 19 0;
#X coords 0 -1 1 1 110 20 1 177 -11;
