#N canvas 511 434 690 375 10;
#X obj 46 -48 ctlin;
#X obj 191 70 spigot;
#X obj 164 125 route;
#X obj 46 -4 list prepend;
#X obj 265 -9 tgl 15 0 empty empty empty 17 7 0 10 -262144 -1 -1 0
1;
#X obj 265 12 expr 1 - $f1;
#X obj 46 48 spigot;
#X text 90 47 don't output while selecting;
#X obj 164 266 outlet;
#X text 207 -92 toggle on and use a cc to select it;
#X text 207 -70 toggle off to use it;
#X obj 164 145 list prepend 1;
#X obj 164 167 stripnote;
#X obj 164 236 == 0;
#X obj 164 188 bng 15 250 50 0 empty empty empty 17 7 0 10 -262144
-1 -1;
#X obj 164 211 f 0;
#X obj 295 161 outlet;
#X obj 295 140 f;
#X text 309 113 output ctl number when selected;
#X obj 295 39 select 1;
#X obj 432 -53 loadbang;
#X obj 477 12 s \$0-cc-start;
#X obj 200 100 r \$0-cc-start;
#X obj 443 50 s \$0-msg-spigot;
#X msg 443 28 1;
#X obj 56 18 r \$0-msg-spigot;
#X obj 432 -31 f \$1;
#X connect 0 0 3 0;
#X connect 0 1 1 0;
#X connect 0 1 3 1;
#X connect 1 0 2 1;
#X connect 1 0 17 1;
#X connect 2 0 11 0;
#X connect 3 0 6 0;
#X connect 4 0 1 1;
#X connect 4 0 5 0;
#X connect 5 0 6 1;
#X connect 5 0 19 0;
#X connect 6 0 2 0;
#X connect 11 0 12 0;
#X connect 12 0 14 0;
#X connect 13 0 15 1;
#X connect 13 0 8 0;
#X connect 14 0 15 0;
#X connect 15 0 13 0;
#X connect 17 0 16 0;
#X connect 19 0 17 0;
#X connect 20 0 26 0;
#X connect 22 0 2 1;
#X connect 24 0 23 0;
#X connect 25 0 6 1;
#X connect 26 0 21 0;
#X connect 26 0 24 0;
#X coords 0 -1 1 1 110 20 1 173 -12;
