#N canvas 730 460 690 375 10;
#X obj 136 73 ctlin;
#X obj 281 191 spigot;
#X obj 254 226 route;
#X obj 136 147 list prepend;
#X obj 355 113 tgl 15 0 empty empty empty 17 7 0 10 -262144 -1 -1 0
1;
#X obj 355 133 expr 1 - $f1;
#X obj 136 169 spigot;
#X text 180 168 don't output while selecting;
#X obj 254 286 outlet;
#X text 297 29 toggle on and use a cc to select it;
#X text 297 51 toggle off to use it;
#X text 297 73 arg: scaled range;
#X obj 254 246 / 127;
#X obj 254 266 * \$1;
#X connect 0 0 3 0;
#X connect 0 1 1 0;
#X connect 0 1 3 1;
#X connect 1 0 2 1;
#X connect 2 0 12 0;
#X connect 3 0 6 0;
#X connect 4 0 1 1;
#X connect 4 0 5 0;
#X connect 5 0 6 1;
#X connect 6 0 2 0;
#X connect 12 0 13 0;
#X connect 13 0 8 0;
#X coords 0 -1 1 1 60 20 1 313 110;
