#N canvas 311 104 786 493 10;
#X obj 46 9 ctlin;
#X obj 294 354 spigot;
#X obj 355 163 tgl 15 0 empty empty empty 17 7 0 10 -262144 -1 -1 0
1;
#X obj 355 183 expr 1 - $f1;
#X obj 46 309 spigot;
#X obj 46 391 outlet;
#X text 288 34 toggle on and use a cc to select it;
#X text 288 56 toggle off to use it;
#X obj 46 351 / 127;
#X obj 46 371 * \$1;
#X obj 279 401 outlet;
#X obj 279 380 f;
#X text 203 424 output ctl number when selected;
#X obj 355 205 select 1;
#X obj 680 18 loadbang;
#X obj 680 62 s \$0-msg-spigot;
#X msg 680 40 1;
#X obj 79 286 r \$0-msg-spigot;
#X obj 584 354 spigot;
#X obj 569 380 f;
#X obj 569 401 outlet;
#X text 574 424 output chan number;
#X obj 132 33 s \$0-chan-in;
#X obj 584 333 r \$0-chan-in;
#X obj 139 104 r \$0-chan-in;
#X obj 60 33 s \$0-cc-in;
#X obj 294 333 r \$0-cc-in;
#X obj 139 59 r \$0-cc-in;
#X obj 595 380 s \$0-chan-selected;
#X obj 255 206 s \$0-msg-spigot;
#X obj 306 380 s \$0-cc-selected;
#X text 288 78 \$1: scaled range\$2: start cc num\$3: start channel
;
#X text 288 12 dried/cc - midi cc with cc & channel learn;
#X obj 97 215 r \$0-cc-selected;
#X obj 46 238 route \$2, f 9;
#X obj 448 182 s \$0-learn-on;
#X obj 665 333 r \$0-learn-on;
#X obj 363 333 r \$0-learn-on;
#X obj 355 230 s \$0-learn-off;
#X obj 201 354 r \$0-learn-off;
#X obj 490 354 r \$0-learn-off;
#X text 90 308 don't output while learning;
#X obj 46 83 list prepend \$2, f 16;
#X obj 46 128 list prepend \$3, f 16;
#N canvas 777 601 450 338 channel-route 0;
#X obj 30 15 inlet;
#X obj 30 40 route \$3;
#X obj 30 205 outlet;
#X obj 75 148 spigot;
#X obj 108 124 == 0;
#X obj 116 76 loadbang;
#X obj 116 101 f \$3;
#X text 89 37 regular channel routing;
#X text 170 105 pass all channels if none selected;
#X obj 75 15 r \$0-chan-selected;
#X msg 75 173 \$2 \$3;
#X connect 0 0 1 0;
#X connect 1 0 2 0;
#X connect 1 1 3 0;
#X connect 3 0 10 0;
#X connect 4 0 3 1;
#X connect 5 0 6 0;
#X connect 6 0 4 0;
#X connect 9 0 1 1;
#X connect 9 0 4 0;
#X connect 10 0 2 0;
#X restore 46 190 pd channel-route;
#X connect 0 0 42 0;
#X connect 0 1 25 0;
#X connect 0 2 22 0;
#X connect 1 0 11 1;
#X connect 1 0 30 0;
#X connect 2 0 3 0;
#X connect 2 0 35 0;
#X connect 3 0 13 0;
#X connect 3 0 29 0;
#X connect 4 0 8 0;
#X connect 8 0 9 0;
#X connect 9 0 5 0;
#X connect 11 0 10 0;
#X connect 13 0 38 0;
#X connect 14 0 16 0;
#X connect 16 0 15 0;
#X connect 17 0 4 1;
#X connect 18 0 19 1;
#X connect 18 0 28 0;
#X connect 19 0 20 0;
#X connect 23 0 18 0;
#X connect 24 0 43 1;
#X connect 26 0 1 0;
#X connect 27 0 42 1;
#X connect 33 0 34 1;
#X connect 34 0 4 0;
#X connect 36 0 18 1;
#X connect 37 0 1 1;
#X connect 39 0 11 0;
#X connect 40 0 19 0;
#X connect 42 0 43 0;
#X connect 43 0 44 0;
#X connect 44 0 34 0;
#X coords 0 -1 1 1 120 20 1 254 160;
