#N canvas 657 84 690 375 10;
#X obj 136 73 ctlin;
#X obj 281 191 spigot;
#X obj 254 286 route;
#X obj 136 117 list prepend;
#X obj 355 113 tgl 15 0 empty empty empty 17 7 0 10 -262144 -1 -1 0
1;
#X obj 355 133 expr 1 - $f1;
#X obj 136 169 spigot;
#X text 180 168 don't output while selecting;
#X obj 254 346 outlet;
#X text 297 29 toggle on and use a cc to select it;
#X text 297 51 toggle off to use it;
#X obj 254 306 / 127;
#X obj 254 326 * \$1;
#X obj 365 237 outlet;
#X obj 365 216 f;
#X text 379 189 output ctl number when selected;
#X obj 355 155 select 1;
#X obj 551 66 loadbang;
#X obj 551 88 f \$2;
#X text 297 73 \$1: scaled range\$2: start cc num;
#X obj 596 131 s \$0-cc-start;
#X obj 294 262 r \$0-cc-start;
#X obj 583 178 s \$0-msg-spigot;
#X msg 583 156 1;
#X obj 142 142 r \$0-msg-spigot;
#X connect 0 0 3 0;
#X connect 0 1 1 0;
#X connect 0 1 3 1;
#X connect 1 0 14 1;
#X connect 1 0 2 1;
#X connect 2 0 11 0;
#X connect 3 0 6 0;
#X connect 4 0 1 1;
#X connect 4 0 5 0;
#X connect 5 0 6 1;
#X connect 5 0 16 0;
#X connect 6 0 2 0;
#X connect 11 0 12 0;
#X connect 12 0 8 0;
#X connect 14 0 13 0;
#X connect 16 0 14 0;
#X connect 17 0 18 0;
#X connect 18 0 20 0;
#X connect 18 0 23 0;
#X connect 21 0 2 1;
#X connect 23 0 22 0;
#X connect 24 0 6 1;
#X coords 0 -1 1 1 120 20 1 253 110;
