#N canvas 2989 360 450 300 12;
#X obj 19 90 inlet;
#X obj 18 18 loadbang;
#X obj 19 177 outlet;
#X obj 140 78 expr min($f1 \, $f2) \; max($f1 \, $f2);
#X obj 140 18 inlet;
#X obj 238 18 inlet;
#X obj 238 47 t b f;
#X obj 18 47 list \$1 \$2;
#X text 20 228 clamp - ensure a number input is between two other numbers
(any order);
#X obj 19 119 max;
#X obj 19 148 min;
#X connect 0 0 9 0;
#X connect 1 0 7 0;
#X connect 3 0 9 1;
#X connect 3 1 10 1;
#X connect 4 0 3 0;
#X connect 5 0 6 0;
#X connect 6 0 3 0;
#X connect 6 1 3 1;
#X connect 7 0 3 0;
#X connect 9 0 10 0;
#X connect 10 0 2 0;
