#N canvas 317 361 942 220 12;
#X obj 33 55 expr~ pow(1 - $v1 \, 3) * $f2 + 3 * pow(1 - $v1 \, 2)
* $v1 * $f3 + 3 * (1 - $v1) * pow($v1 \, 2) * $f4 + pow($v1 \, 3) *
$f5, f 117;
#X obj 33 26 inlet~;
#X obj 237 26 inlet;
#X obj 441 26 inlet;
#X obj 645 26 inlet;
#X obj 849 26 inlet;
#X obj 33 84 outlet~;
#X text 239 103 cubic-bezier~signal inlet is progress (t) \, 0-1other
inlets are control values;
#X connect 0 0 6 0;
#X connect 1 0 0 0;
#X connect 2 0 0 1;
#X connect 3 0 0 2;
#X connect 4 0 0 3;
#X connect 5 0 0 4;
