#N canvas 1154 399 499 470 12;
#X obj 16 15 inlet;
#X obj 16 111 t b b;
#X obj 16 260 spigot;
#X obj 48 145 f 0;
#X obj 84 145 + 1;
#X obj 48 214 == 0;
#X msg 66 111 0;
#X obj 16 44 route reset;
#X obj 16 289 outlet;
#X obj 131 15 inlet;
#X obj 84 174 % \$1;
#X text 187 15 divider: a simple clock divider;
#X text 187 44 bangs once every \$1 input bangs;
#X text 187 73 send "reset" to reset;
#X connect 0 0 7 0;
#X connect 1 0 2 0;
#X connect 1 1 3 0;
#X connect 2 0 8 0;
#X connect 3 0 4 0;
#X connect 3 0 5 0;
#X connect 4 0 10 0;
#X connect 5 0 2 1;
#X connect 6 0 3 1;
#X connect 7 0 6 0;
#X connect 7 1 1 0;
#X connect 9 0 10 1;
#X connect 10 0 3 1;
