#N canvas 836 301 574 408 10;
#X obj 75 160 cos~;
#X obj 75 182 +~ 1;
#X obj 75 204 /~ 2;
#X text 132 185 sin 0 - 1 ramp;
#X obj 75 274 *~ 1;
#X obj 75 296 +~ 0;
#X obj 127 249 r \$0-range;
#X obj 75 357 outlet~;
#X obj 35 6 inlet;
#X text 204 258 scale to range;
#X text 180 12 vline-eased~ \; vline~ ramp with sine easing;
#X obj 6 87 loadbang;
#X msg 6 109 0.5;
#N canvas 366 72 450 300 \$0-parse-list 0;
#X obj 40 10 inlet;
#X obj 40 89 t list list;
#X obj 173 219 s \$0-range;
#X obj 40 32 list split 2;
#X obj 109 58 list append 0;
#X text 199 56 treat 1-item lists as zero-duration;
#X msg 40 111 \$2;
#X obj 40 133 s \$0-duration;
#X msg 173 112 \$1;
#X obj 173 134 t f b;
#X obj 200 155 s \$0-get-snap;
#X obj 200 176 r \$0-snap;
#X obj 173 196 -;
#X connect 0 0 3 0;
#X connect 1 0 6 0;
#X connect 1 1 8 0;
#X connect 3 0 1 0;
#X connect 3 2 4 0;
#X connect 4 0 1 0;
#X connect 6 0 7 0;
#X connect 8 0 9 0;
#X connect 9 0 12 0;
#X connect 9 1 10 0;
#X connect 11 0 12 1;
#X connect 12 0 2 0;
#X restore 35 27 pd \$0-parse-list;
#X obj 215 324 snapshot~;
#X msg 75 116 0.5 \, 1 \$1;
#X obj 75 93 r \$0-duration;
#X obj 215 302 r \$0-get-snap;
#X obj 215 346 s \$0-snap;
#X text 180 47 only takes one target-duration pair at a time;
#X obj 75 138 line~;
#X connect 0 0 1 0;
#X connect 1 0 2 0;
#X connect 2 0 4 0;
#X connect 4 0 5 0;
#X connect 5 0 7 0;
#X connect 5 0 14 0;
#X connect 6 0 4 1;
#X connect 8 0 13 0;
#X connect 11 0 12 0;
#X connect 12 0 20 0;
#X connect 14 0 5 1;
#X connect 14 0 18 0;
#X connect 15 0 20 0;
#X connect 16 0 15 0;
#X connect 17 0 14 0;
#X connect 20 0 0 0;
