#N canvas 1470 562 450 300 12;
#X obj 29 120 list store;
#X obj 62 182 list split 1;
#X obj 29 240 outlet;
#X obj 29 86 inlet;
#X obj 117 86 inlet;
#X obj 29 151 list split \$1;
#X obj 29 211 list append;
#X text 30 20 remove the element at index \$1 from the list.;
#X connect 0 0 5 0;
#X connect 1 1 6 1;
#X connect 3 0 0 0;
#X connect 4 0 5 1;
#X connect 5 0 6 0;
#X connect 5 1 1 0;
#X connect 6 0 2 0;
