#N canvas 318 223 730 593 12;
#X obj 143 216 + 1;
#X obj 111 245 % 8;
#X obj 111 422 hradio 15 1 0 8 empty empty empty 0 -8 0 10 #fcfcfc
#000000 #000000 0;
#X obj 81 476 route 0 1 2 3 4 5 6 7;
#X obj 81 507 spigot;
#X obj 111 437 tgl 15 0 empty empty empty 17 7 0 10 #fcfcfc #000000
#000000 0 1;
#X obj 129 507 spigot;
#X obj 126 437 tgl 15 0 empty empty empty 17 7 0 10 #fcfcfc #000000
#000000 0 1;
#X obj 177 507 spigot;
#X obj 141 437 tgl 15 0 empty empty empty 17 7 0 10 #fcfcfc #000000
#000000 0 1;
#X obj 225 507 spigot;
#X obj 156 437 tgl 15 0 empty empty empty 17 7 0 10 #fcfcfc #000000
#000000 0 1;
#X obj 273 507 spigot;
#X obj 171 437 tgl 15 0 empty empty empty 17 7 0 10 #fcfcfc #000000
#000000 0 1;
#X obj 321 507 spigot;
#X obj 186 437 tgl 15 0 empty empty empty 17 7 0 10 #fcfcfc #000000
#000000 0 1;
#X obj 369 507 spigot;
#X obj 201 437 tgl 15 0 empty empty empty 17 7 0 10 #fcfcfc #000000
#000000 0 1;
#X obj 417 507 spigot;
#X obj 216 437 tgl 15 0 empty empty empty 17 7 0 10 #fcfcfc #000000
#000000 0 1;
#X obj 81 566 outlet;
#X obj 171 9 inlet;
#X text 286 148 miniseq - quick & dirty sequencer;
#X obj 111 216 f 0;
#X text 286 222 2nd inlet: to metro's right inlet;
#X text 286 251 3rd inlet: # steps (1-8);
#X obj 220 9 inlet;
#N canvas 730 342 450 325 steps 0;
#X obj 22 24 inlet;
#X obj 22 53 min 8;
#X obj 22 111 s \$0-steps;
#X obj 106 111 > 0;
#X obj 106 140 route 1 0;
#X obj 106 169 1;
#X obj 106 198 s \$0-direction;
#X obj 136 169 -1;
#X obj 22 82 max -8;
#X connect 0 0 1 0;
#X connect 1 0 8 0;
#X connect 3 0 4 0;
#X connect 4 0 5 0;
#X connect 4 1 7 0;
#X connect 5 0 6 0;
#X connect 7 0 6 0;
#X connect 8 0 2 0;
#X connect 8 0 3 0;
#X restore 220 38 pd steps;
#X obj 143 245 r \$0-steps;
#X obj 571 423 outlet;
#X text 530 448 for routing by number;
#X text 530 477 or for sync;
#X msg 81 536 0;
#X msg 129 536 1;
#X msg 177 536 2;
#X msg 225 536 3;
#X msg 273 536 4;
#X msg 321 536 5;
#X msg 369 536 6;
#X msg 417 536 7;
#X obj 111 187 metro;
#X obj 143 274 r \$0-start-step;
#X obj 290 9 inlet;
#N canvas 730 313 450 325 start-step 0;
#X obj 22 24 inlet;
#X obj 22 111 s \$0-start-step;
#X obj 22 82 max 0;
#X obj 22 53 min 7;
#X connect 0 0 3 0;
#X connect 2 0 1 0;
#X connect 3 0 2 0;
#X restore 290 38 pd start-step;
#X obj 111 274 + 0;
#X text 286 280 4rd inlet: start index (0-7);
#X obj 175 216 r \$0-direction;
#N canvas 648 543 450 325 once-thru 0;
#X obj 15 43 inlet;
#X obj 15 79 spigot;
#X obj 74 14 r \$0-once-thru-start;
#X msg 74 43 1;
#X obj 228 14 r \$0-once-thru-end;
#X msg 228 43 0;
#X obj 15 220 b;
#X obj 15 248 s \$0-once-thru-end;
#X obj 43 108 r \$0-steps;
#X obj 43 164 - 1;
#X obj 15 192 sel;
#X text 15 289 stop after the requested number of steps if once-thru
;
#X obj 15 108 abs;
#X obj 43 136 abs;
#X connect 0 0 1 0;
#X connect 1 0 12 0;
#X connect 2 0 3 0;
#X connect 3 0 1 1;
#X connect 4 0 5 0;
#X connect 5 0 1 1;
#X connect 6 0 7 0;
#X connect 8 0 13 0;
#X connect 9 0 10 1;
#X connect 10 0 6 0;
#X connect 12 0 10 0;
#X connect 13 0 9 0;
#X restore 3 274 pd once-thru;
#N canvas 460 454 450 400 wrap 0;
#X obj 62 71 inlet;
#X obj 62 268 outlet;
#X obj 62 100 % 8;
#X obj 62 129 moses 0;
#X obj 62 158 + 8;
#X connect 0 0 2 0;
#X connect 2 0 3 0;
#X connect 3 0 4 0;
#X connect 3 1 1 0;
#X connect 4 0 1 0;
#X restore 111 393 pd wrap;
#N canvas 890 337 450 325 routing 0;
#X obj 20 14 inlet;
#X msg 52 223 0;
#X obj 52 162 s \$0-once-thru-start;
#X obj 52 191 r \$0-once-thru-end;
#X obj 20 72 t b b;
#X obj 199 162 s \$0-once-thru-end;
#X obj 20 43 route bang float;
#X obj 74 72 t f b;
#X obj 20 283 outlet;
#X obj 129 72 route step;
#X obj 129 101 b;
#X obj 129 130 s \$0-one-step;
#X connect 0 0 6 0;
#X connect 1 0 8 0;
#X connect 3 0 1 0;
#X connect 4 0 8 0;
#X connect 4 1 2 0;
#X connect 6 0 4 0;
#X connect 6 1 7 0;
#X connect 6 2 9 0;
#X connect 7 0 8 0;
#X connect 7 1 5 0;
#X connect 9 0 10 0;
#X connect 9 1 8 0;
#X connect 10 0 11 0;
#X restore 111 38 pd routing;
#X obj 111 13 inlet;
#X text 286 177 1st inlet: straight to metro \, but bang for once-thru
\, "step" for a single step;
#X obj 12 187 r \$0-one-step;
#X connect 0 0 23 1;
#X connect 1 0 0 0;
#X connect 1 0 44 0;
#X connect 1 0 47 0;
#X connect 2 0 3 0;
#X connect 3 0 4 0;
#X connect 3 1 6 0;
#X connect 3 2 8 0;
#X connect 3 3 10 0;
#X connect 3 4 12 0;
#X connect 3 5 14 0;
#X connect 3 6 16 0;
#X connect 3 7 18 0;
#X connect 4 0 32 0;
#X connect 5 0 4 1;
#X connect 6 0 33 0;
#X connect 7 0 6 1;
#X connect 8 0 34 0;
#X connect 9 0 8 1;
#X connect 10 0 35 0;
#X connect 11 0 10 1;
#X connect 12 0 36 0;
#X connect 13 0 12 1;
#X connect 14 0 37 0;
#X connect 15 0 14 1;
#X connect 16 0 38 0;
#X connect 17 0 16 1;
#X connect 18 0 39 0;
#X connect 19 0 18 1;
#X connect 21 0 40 1;
#X connect 23 0 1 0;
#X connect 26 0 27 0;
#X connect 28 0 1 1;
#X connect 32 0 20 0;
#X connect 33 0 20 0;
#X connect 34 0 20 0;
#X connect 35 0 20 0;
#X connect 36 0 20 0;
#X connect 37 0 20 0;
#X connect 38 0 20 0;
#X connect 39 0 20 0;
#X connect 40 0 23 0;
#X connect 41 0 44 1;
#X connect 42 0 43 0;
#X connect 44 0 48 0;
#X connect 46 0 0 1;
#X connect 48 0 2 0;
#X connect 48 0 29 0;
#X connect 49 0 40 0;
#X connect 50 0 49 0;
#X connect 52 0 23 0;
#X coords 0 -1 1 1 122 32 1 110 421;
