#N canvas 124 258 730 593 12;
#X obj 143 216 + 1;
#X obj 111 245 % 8;
#X obj 111 332 hradio 15 1 0 8 empty empty empty 0 -8 0 10 #fcfcfc
#000000 #000000 4;
#X obj 81 386 route 0 1 2 3 4 5 6 7;
#X obj 81 417 spigot;
#X obj 111 347 tgl 15 0 empty empty empty 17 7 0 10 #fcfcfc #000000
#000000 0 1;
#X obj 129 417 spigot;
#X obj 126 347 tgl 15 0 empty empty empty 17 7 0 10 #fcfcfc #000000
#000000 0 1;
#X obj 177 417 spigot;
#X obj 141 347 tgl 15 0 empty empty empty 17 7 0 10 #fcfcfc #000000
#000000 0 1;
#X obj 225 417 spigot;
#X obj 156 347 tgl 15 0 empty empty empty 17 7 0 10 #fcfcfc #000000
#000000 0 1;
#X obj 273 417 spigot;
#X obj 171 347 tgl 15 0 empty empty empty 17 7 0 10 #fcfcfc #000000
#000000 0 1;
#X obj 321 417 spigot;
#X obj 186 347 tgl 15 0 empty empty empty 17 7 0 10 #fcfcfc #000000
#000000 0 1;
#X obj 369 417 spigot;
#X obj 201 347 tgl 15 0 empty empty empty 17 7 0 10 #fcfcfc #000000
#000000 0 1;
#X obj 417 417 spigot;
#X obj 216 347 tgl 15 0 empty empty empty 17 7 0 10 #fcfcfc #000000
#000000 0 1;
#X obj 81 476 outlet;
#X obj 44 9 inlet;
#X obj 171 9 inlet;
#X text 286 148 miniseq - quick & dirty sequencer;
#X msg 121 158 0;
#N canvas 460 454 450 400 once-thru-logic 0;
#X obj 62 71 inlet;
#X obj 62 268 outlet;
#X obj 161 130 spigot;
#X obj 196 15 r \$0-once-thru-start;
#X msg 196 44 1;
#X obj 232 39 r \$0-once-thru-end;
#X msg 232 68 0;
#X obj 207 253 b;
#X obj 207 282 s \$0-once-thru-end;
#X obj 101 101 == 0;
#X text 8 130 looping;
#X text 208 130 once thru;
#X obj 62 130 spigot 1;
#X obj 161 219 moses 7;
#X obj 207 160 r \$0-steps;
#X obj 207 189 - 1;
#X connect 0 0 2 0;
#X connect 0 0 12 0;
#X connect 2 0 13 0;
#X connect 3 0 4 0;
#X connect 4 0 2 1;
#X connect 4 0 9 0;
#X connect 5 0 6 0;
#X connect 6 0 2 1;
#X connect 6 0 9 0;
#X connect 7 0 8 0;
#X connect 9 0 12 1;
#X connect 12 0 1 0;
#X connect 13 0 1 0;
#X connect 13 1 7 0;
#X connect 14 0 15 0;
#X connect 15 0 13 1;
#X restore 111 303 pd once-thru-logic;
#X obj 76 97 s \$0-once-thru-start;
#X obj 76 126 r \$0-once-thru-end;
#X obj 111 216 f 0;
#X obj 44 67 t b b;
#X obj 223 97 s \$0-once-thru-end;
#X text 286 177 1st inlet: straight to metro \, but bang for once-thru
;
#X text 286 206 2nd inlet: to metro's right inlet;
#X text 286 235 3rd inlet: # steps (1-8);
#X obj 220 9 inlet;
#N canvas 730 342 450 325 steps 0;
#X obj 22 24 inlet;
#X obj 22 53 min 8;
#X obj 22 82 max 1;
#X obj 22 111 s \$0-steps;
#X connect 0 0 1 0;
#X connect 1 0 2 0;
#X connect 2 0 3 0;
#X restore 220 38 pd steps;
#X obj 143 245 r \$0-steps;
#X obj 571 333 outlet;
#X text 530 358 for routing by number;
#X text 530 387 or for sync;
#X msg 81 446 0;
#X msg 129 446 1;
#X msg 177 446 2;
#X msg 225 446 3;
#X msg 273 446 4;
#X msg 321 446 5;
#X msg 369 446 6;
#X msg 417 446 7;
#X obj 44 38 route bang float;
#X obj 111 68 t f b;
#X obj 111 187 metro;
#X obj 143 274 r \$0-start-step;
#X obj 290 9 inlet;
#N canvas 730 313 450 325 start-step 0;
#X obj 22 24 inlet;
#X obj 22 111 s \$0-start-step;
#X obj 22 82 max 0;
#X obj 22 53 min 7;
#X connect 0 0 3 0;
#X connect 2 0 1 0;
#X connect 3 0 2 0;
#X restore 290 38 pd start-step;
#X obj 111 274 + 0;
#X text 286 264 4rd inlet: start index (0-7);
#X connect 0 0 28 1;
#X connect 1 0 0 0;
#X connect 1 0 54 0;
#X connect 2 0 3 0;
#X connect 3 0 4 0;
#X connect 3 1 6 0;
#X connect 3 2 8 0;
#X connect 3 3 10 0;
#X connect 3 4 12 0;
#X connect 3 5 14 0;
#X connect 3 6 16 0;
#X connect 3 7 18 0;
#X connect 4 0 40 0;
#X connect 5 0 4 1;
#X connect 6 0 41 0;
#X connect 7 0 6 1;
#X connect 8 0 42 0;
#X connect 9 0 8 1;
#X connect 10 0 43 0;
#X connect 11 0 10 1;
#X connect 12 0 44 0;
#X connect 13 0 12 1;
#X connect 14 0 45 0;
#X connect 15 0 14 1;
#X connect 16 0 46 0;
#X connect 17 0 16 1;
#X connect 18 0 47 0;
#X connect 19 0 18 1;
#X connect 21 0 48 0;
#X connect 22 0 50 1;
#X connect 24 0 28 1;
#X connect 24 0 50 0;
#X connect 25 0 2 0;
#X connect 25 0 37 0;
#X connect 27 0 24 0;
#X connect 28 0 1 0;
#X connect 29 0 50 0;
#X connect 29 1 26 0;
#X connect 34 0 35 0;
#X connect 36 0 1 1;
#X connect 40 0 20 0;
#X connect 41 0 20 0;
#X connect 42 0 20 0;
#X connect 43 0 20 0;
#X connect 44 0 20 0;
#X connect 45 0 20 0;
#X connect 46 0 20 0;
#X connect 47 0 20 0;
#X connect 48 0 29 0;
#X connect 48 1 49 0;
#X connect 48 2 50 0;
#X connect 49 0 50 0;
#X connect 49 1 30 0;
#X connect 50 0 28 0;
#X connect 51 0 54 1;
#X connect 52 0 53 0;
#X connect 54 0 25 0;
#X coords 0 -1 1 1 122 32 1 110 331;
