#N canvas 1023 207 450 300 12;
#X obj 15 21 inlet;
#X obj 15 50 expr $f1 * $f2 / 1000;
#X obj 15 79 outlet;
#X text 276 21 convert ms to samples;
#X obj 159 21 ./sr;
#X connect 0 0 1 0;
#X connect 1 0 2 0;
#X connect 4 0 1 1;
