#N canvas 1120 180 450 524 12;
#X obj 22 33 inlet;
#X obj 22 89 metro;
#X obj 22 118 f;
#X obj 60 118 + 1;
#X obj 22 147 mod 16;
#X obj 54 61 expr 60 / $f1 * 1000;
#X obj 65 33 inlet;
#X obj 22 414 outlet;
#N canvas 846 478 450 471 blinkenlights 0;
#X obj 48 23 inlet;
#X obj 166 23 inlet;
#X msg 48 290 127 \$1;
#X obj 48 325 ctlout;
#X obj 48 89 moses 8;
#X obj 48 118 + 32;
#X obj 106 263 f;
#X obj 106 236 delay 250;
#X obj 94 118 + 40;
#X msg 106 290 0 \$1;
#X obj 106 149 t b f;
#X text 212 24 delay (ms);
#X obj 159 151 tabread \$0-seq;
#X obj 106 208 spigot 1;
#X obj 159 180 == 0;
#X obj 48 52 t f f;
#X connect 0 0 15 0;
#X connect 1 0 7 1;
#X connect 2 0 3 0;
#X connect 4 0 5 0;
#X connect 4 1 8 0;
#X connect 5 0 2 0;
#X connect 5 0 10 0;
#X connect 6 0 9 0;
#X connect 7 0 6 0;
#X connect 8 0 2 0;
#X connect 8 0 10 0;
#X connect 9 0 3 0;
#X connect 10 0 13 0;
#X connect 10 1 6 1;
#X connect 12 0 14 0;
#X connect 13 0 7 0;
#X connect 14 0 13 1;
#X connect 15 0 4 0;
#X connect 15 1 12 0;
#X restore 50 188 pd blinkenlights;
#N canvas 334 189 450 379 button-set 0;
#X obj 25 17 ctlin;
#X obj 25 75 f;
#X obj 25 46 select 127;
#X obj 25 104 moses 48;
#X obj 25 133 - 32;
#X obj 78 133 - 40;
#X obj 25 222 t f f;
#X obj 25 280 == 0;
#X text 157 248 just flip between 0 and 1;
#X obj 25 251 tabread \$0-seq;
#X obj 25 309 tabwrite \$0-seq;
#X obj 201 396 pack f f;
#X obj 201 424 ctlout 1;
#X obj 201 367 * 127;
#X obj 254 337 moses 8;
#X obj 254 366 + 32;
#X obj 300 366 + 40;
#X text 185 321 lights;
#X obj 25 162 moses 8;
#X obj 78 162 moses 16;
#X text 124 47 only on;
#X text 162 127 map to 0-15;
#X obj 25 191 moses;
#X connect 0 0 2 0;
#X connect 0 1 1 1;
#X connect 1 0 3 0;
#X connect 2 0 1 0;
#X connect 3 0 4 0;
#X connect 3 1 5 0;
#X connect 4 0 18 0;
#X connect 5 0 19 0;
#X connect 6 0 9 0;
#X connect 6 1 10 1;
#X connect 6 1 14 0;
#X connect 7 0 10 0;
#X connect 7 0 13 0;
#X connect 9 0 7 0;
#X connect 11 0 12 0;
#X connect 13 0 11 0;
#X connect 14 0 15 0;
#X connect 14 1 16 0;
#X connect 15 0 11 1;
#X connect 16 0 11 1;
#X connect 18 0 22 0;
#X connect 19 0 22 0;
#X connect 22 1 6 0;
#X restore 298 283 pd button-set;
#X obj 298 256 table \$0-seq;
#X obj 54 313 tabread \$0-seq;
#X obj 22 342 spigot;
#X obj 22 284 t f f;
#N canvas 406 500 450 369 sliders-set 0;
#X obj 21 9 ctlin;
#X obj 37 37 moses 8;
#X obj 37 66 + 8;
#X obj 37 95 moses 16;
#X obj 90 66 - 16;
#X obj 90 95 moses 8;
#X obj 21 184 pack f f;
#X obj 21 212 tabwrite \$0-sliders;
#X obj 3 154 f;
#X obj 37 124 t b f;
#X connect 0 0 8 1;
#X connect 0 1 1 0;
#X connect 1 0 2 0;
#X connect 1 1 4 0;
#X connect 2 0 3 0;
#X connect 3 0 9 0;
#X connect 4 0 5 0;
#X connect 5 0 9 0;
#X connect 6 0 7 0;
#X connect 8 0 6 0;
#X connect 9 0 8 0;
#X connect 9 1 6 1;
#X restore 298 340 pd sliders-set;
#X obj 298 312 table \$0-sliders;
#X obj 159 313 tabread \$0-sliders;
#X obj 22 371 pack f f;
#X obj 298 369 loadbang;
#X msg 298 398 const 127;
#X obj 298 427 s \$0-sliders;
#X obj 98 119 outlet;
#X text 239 19 turn the nanokontrol2into a step sequencer;
#X text 239 64 inlet 1: toggle to playinlet 2: tempo (bpm)outlet
1: index-value pairoutlet 2: sync bangs;
#X connect 0 0 1 0;
#X connect 1 0 2 0;
#X connect 1 0 21 0;
#X connect 2 0 3 0;
#X connect 2 0 4 0;
#X connect 3 0 2 1;
#X connect 4 0 8 0;
#X connect 4 0 13 0;
#X connect 5 0 1 1;
#X connect 5 0 8 1;
#X connect 6 0 5 0;
#X connect 11 0 12 1;
#X connect 12 0 17 0;
#X connect 13 0 12 0;
#X connect 13 1 11 0;
#X connect 13 1 16 0;
#X connect 16 0 17 1;
#X connect 17 0 7 0;
#X connect 18 0 19 0;
#X connect 19 0 20 0;
