#N canvas 286 417 449 350 12;
#N canvas 489 132 763 482 routing 0;
#X obj 50 17 ctlin, f 10;
#X obj 50 46 pack f f f;
#X msg 50 75 \$3 \$2 \$1;
#X obj 50 104 route 1;
#X text 118 104 channel route;
#X obj 50 217 route 0;
#X obj 96 187 + 0;
#X text 55 160 slider;
#X obj 50 246 / 127;
#X obj 50 275 s \$0-slider;
#X obj 169 246 / 127;
#X text 174 160 knob;
#X text 311 160 S;
#X text 419 160 M;
#X text 563 160 R;
#X obj 306 246 > 0;
#X obj 169 275 s \$0-knob;
#X obj 414 246 > 0;
#X obj 558 246 > 0;
#X obj 169 217 route 16;
#X obj 222 187 + 16;
#X obj 306 217 route 32;
#X obj 359 187 + 32;
#X obj 414 217 route 48;
#X obj 467 187 + 48;
#X obj 558 217 route 64;
#X obj 611 187 + 64;
#X obj 611 104 f \$1;
#X obj 611 76 loadbang;
#N canvas 710 369 450 323 btn-routing 0;
#X obj 204 21 inlet;
#X obj 132 108 gate 2;
#X obj 132 21 loadbang;
#X obj 132 50 f \$2;
#X obj 132 79 + 1;
#X text 205 143 toggle mode;
#X obj 84 172 select 1;
#X obj 104 322 s \$0-btn-s;
#X obj 187 322 s \$0-btn-s-off;
#X obj 187 292 b;
#X text 84 142 button mode;
#X obj 205 172 select 1;
#X obj 205 201 tgl 15 0 empty empty empty 17 7 0 10 -262144 -1 -1 0
1;
#X obj 205 255 select 0;
#X obj 205 225 t f f;
#X connect 0 0 1 1;
#X connect 1 0 6 0;
#X connect 1 1 11 0;
#X connect 2 0 3 0;
#X connect 3 0 4 0;
#X connect 4 0 1 0;
#X connect 6 0 7 0;
#X connect 6 1 9 0;
#X connect 9 0 8 0;
#X connect 11 0 12 0;
#X connect 12 0 14 0;
#X connect 13 0 9 0;
#X connect 14 0 13 0;
#X connect 14 1 7 0;
#X restore 306 275 pd btn-routing;
#N canvas 710 369 450 323 btn-routing-m 0;
#X obj 204 21 inlet;
#X obj 132 108 gate 2;
#X obj 132 21 loadbang;
#X obj 132 50 f \$2;
#X obj 132 79 + 1;
#X text 205 143 toggle mode;
#X obj 84 172 select 1;
#X obj 187 292 b;
#X text 84 142 button mode;
#X obj 205 172 select 1;
#X obj 205 201 tgl 15 0 empty empty empty 17 7 0 10 -262144 -1 -1 0
1;
#X obj 205 255 select 0;
#X obj 104 322 s \$0-btn-m;
#X obj 187 322 s \$0-btn-m-off;
#X obj 205 225 t f f;
#X connect 0 0 1 1;
#X connect 1 0 6 0;
#X connect 1 1 9 0;
#X connect 2 0 3 0;
#X connect 3 0 4 0;
#X connect 4 0 1 0;
#X connect 6 0 12 0;
#X connect 6 1 7 0;
#X connect 7 0 13 0;
#X connect 9 0 10 0;
#X connect 10 0 14 0;
#X connect 11 0 7 0;
#X connect 14 0 11 0;
#X connect 14 1 12 0;
#X restore 414 275 pd btn-routing-m;
#N canvas 710 369 450 323 btn-routing-r 0;
#X obj 204 21 inlet;
#X obj 132 108 gate 2;
#X obj 132 21 loadbang;
#X obj 132 50 f \$2;
#X obj 132 79 + 1;
#X text 205 143 toggle mode;
#X obj 84 172 select 1;
#X obj 187 292 b;
#X text 84 142 button mode;
#X obj 205 172 select 1;
#X obj 205 201 tgl 15 0 empty empty empty 17 7 0 10 -262144 -1 -1 0
1;
#X obj 205 255 select 0;
#X obj 104 322 s \$0-btn-r;
#X obj 187 322 s \$0-btn-r-off;
#X obj 205 225 t f f;
#X connect 0 0 1 1;
#X connect 1 0 6 0;
#X connect 1 1 9 0;
#X connect 2 0 3 0;
#X connect 3 0 4 0;
#X connect 4 0 1 0;
#X connect 6 0 12 0;
#X connect 6 1 7 0;
#X connect 7 0 13 0;
#X connect 9 0 10 0;
#X connect 10 0 14 0;
#X connect 11 0 7 0;
#X connect 14 0 11 0;
#X connect 14 1 12 0;
#X restore 558 275 pd btn-routing-r;
#X connect 0 0 1 0;
#X connect 0 1 1 1;
#X connect 0 2 1 2;
#X connect 1 0 2 0;
#X connect 2 0 3 0;
#X connect 3 0 5 0;
#X connect 3 0 19 0;
#X connect 3 0 25 0;
#X connect 3 0 23 0;
#X connect 3 0 21 0;
#X connect 5 0 8 0;
#X connect 6 0 5 1;
#X connect 8 0 9 0;
#X connect 10 0 16 0;
#X connect 15 0 29 0;
#X connect 17 0 30 0;
#X connect 18 0 31 0;
#X connect 19 0 10 0;
#X connect 20 0 19 1;
#X connect 21 0 15 0;
#X connect 22 0 21 1;
#X connect 23 0 17 0;
#X connect 24 0 23 1;
#X connect 25 0 18 0;
#X connect 26 0 25 1;
#X connect 27 0 22 0;
#X connect 27 0 26 0;
#X connect 27 0 24 0;
#X connect 27 0 20 0;
#X connect 27 0 6 0;
#X connect 28 0 27 0;
#X restore 55 187 pd routing;
#X obj 98 86 vsl 15 80 0 1 0 0 empty \$0-slider empty 0 -9 0 10 -262144
-1 -1 0 1;
#X obj 58 61 hsl 50 15 0 1 0 0 empty \$0-knob empty -2 -8 0 10 -262144
-1 -1 0 1;
#X obj 58 86 tgl 15 0 empty \$0-btn-s-disp S 17 7 0 10 -262144 -1 -1
0 1;
#X obj 58 156 tgl 15 0 empty \$0-btn-r-disp R 17 7 0 10 -262144 -1
-1 1 1;
#X obj 58 120 tgl 15 0 empty \$0-btn-m-disp M 17 7 0 10 -262144 -1
-1 1 1;
#N canvas 1014 285 676 346 output 0;
#X obj 18 85 r \$0-slider;
#X obj 18 114 list prepend slider;
#X obj 162 85 r \$0-knob;
#X obj 162 114 list prepend knob;
#X obj 292 85 r \$0-btn-s;
#X obj 292 114 list prepend s;
#X obj 401 85 r \$0-btn-m;
#X obj 401 114 list prepend m;
#X obj 510 85 r \$0-btn-r;
#X obj 510 114 list prepend r;
#X obj 308 230 list trim;
#X obj 308 259 outlet;
#X connect 0 0 1 0;
#X connect 1 0 10 0;
#X connect 2 0 3 0;
#X connect 3 0 10 0;
#X connect 4 0 5 0;
#X connect 5 0 10 0;
#X connect 6 0 7 0;
#X connect 7 0 10 0;
#X connect 8 0 9 0;
#X connect 9 0 10 0;
#X connect 10 0 11 0;
#X restore 55 216 pd output;
#X obj 55 245 outlet;
#X text 55 6 dried/nano-strip 0 one controller strip for the Korg
nanoKontrol 2;
#N canvas 842 251 672 320 lights 0;
#X obj 115 184 ctlout;
#X msg 179 138 1;
#X obj 78 19 loadbang;
#X obj 78 48 f \$1;
#X obj 134 138 + 32;
#X obj 14 109 r \$0-btn-s;
#X msg 14 138 127;
#X msg 96 138 0;
#X obj 328 184 ctlout;
#X msg 392 138 1;
#X msg 227 138 127;
#X msg 309 138 0;
#X obj 535 184 ctlout;
#X msg 599 138 1;
#X msg 434 138 127;
#X msg 516 138 0;
#X obj 227 109 r \$0-btn-m;
#X obj 309 109 r \$0-btn-m-off;
#X obj 96 109 r \$0-btn-s-off;
#X obj 434 109 r \$0-btn-r;
#X obj 516 109 r \$0-btn-r-off;
#X obj 347 138 + 48;
#X obj 554 138 + 64;
#X connect 1 0 0 2;
#X connect 2 0 3 0;
#X connect 2 0 1 0;
#X connect 2 0 9 0;
#X connect 2 0 13 0;
#X connect 3 0 4 0;
#X connect 3 0 21 0;
#X connect 3 0 22 0;
#X connect 4 0 0 1;
#X connect 5 0 6 0;
#X connect 6 0 0 0;
#X connect 7 0 0 0;
#X connect 9 0 8 2;
#X connect 10 0 8 0;
#X connect 11 0 8 0;
#X connect 13 0 12 2;
#X connect 14 0 12 0;
#X connect 15 0 12 0;
#X connect 16 0 10 0;
#X connect 17 0 11 0;
#X connect 18 0 7 0;
#X connect 19 0 14 0;
#X connect 20 0 15 0;
#X connect 21 0 8 1;
#X connect 22 0 12 1;
#X restore 153 216 pd lights;
#N canvas 980 279 450 323 disp 0;
#X obj 17 18 r \$0-btn-s;
#X obj 98 18 r \$0-btn-s-off;
#X msg 17 47 1;
#X msg 98 47 0;
#X obj 17 76 s \$0-btn-s-disp;
#X msg 17 144 1;
#X msg 98 144 0;
#X msg 17 241 1;
#X msg 98 241 0;
#X obj 17 115 r \$0-btn-m;
#X obj 98 115 r \$0-btn-m-off;
#X obj 17 173 s \$0-btn-m-disp;
#X obj 17 212 r \$0-btn-r;
#X obj 98 212 r \$0-btn-r-off;
#X obj 17 270 s \$0-btn-r-disp;
#X connect 0 0 2 0;
#X connect 1 0 3 0;
#X connect 2 0 4 0;
#X connect 3 0 4 0;
#X connect 5 0 11 0;
#X connect 6 0 11 0;
#X connect 7 0 14 0;
#X connect 8 0 14 0;
#X connect 9 0 5 0;
#X connect 10 0 6 0;
#X connect 12 0 7 0;
#X connect 13 0 8 0;
#X restore 153 187 pd disp;
#X text 161 56 args: \$1 - lane number \, from 0 to 7\$2 - 1 to use
toggle mode for buttonsslider and knob from 0-1buttons output bangs
in normal modeand 1 or 0 in toggle mode;
#X connect 6 0 7 0;
#X coords 0 -1 1 1 62 120 2 55 58;
