#N canvas 168 332 629 532 12;
#N canvas 841 300 763 459 routing 0;
#X obj 60 16 ctlin, f 10;
#X obj 60 45 pack f f f;
#X msg 60 74 \$3 \$2 \$1;
#X obj 60 103 route 1;
#X text 128 103 channel route;
#X obj 60 248 s \$0-track-prev;
#X obj 60 190 route 58;
#X obj 179 190 route 59;
#X obj 60 219 select 127;
#X obj 179 219 select 127;
#X obj 298 219 select 127;
#X obj 417 219 select 127;
#X obj 536 219 select 127;
#X obj 298 248 s \$0-cycle;
#X obj 298 190 route 46;
#X obj 417 248 s \$0-marker-set;
#X obj 536 248 s \$0-marker-prev;
#X obj 417 190 route 60;
#X obj 536 190 route 61;
#X obj 655 219 select 127;
#X obj 655 190 route 62;
#X obj 655 248 s \$0-marker-next;
#X obj 179 248 s \$0-track-next;
#X obj 87 341 select 127;
#X obj 206 341 select 127;
#X obj 325 341 select 127;
#X obj 444 341 select 127;
#X obj 563 341 select 127;
#X obj 87 312 route 43;
#X obj 206 312 route 44;
#X obj 325 312 route 42;
#X obj 444 312 route 41;
#X obj 563 312 route 45;
#X obj 87 370 s \$0-trans-back;
#X obj 206 370 s \$0-trans-forward;
#X obj 325 370 s \$0-trans-stop;
#X obj 444 370 s \$0-trans-play;
#X obj 563 370 s \$0-trans-rec;
#X connect 0 0 1 0;
#X connect 0 1 1 1;
#X connect 0 2 1 2;
#X connect 1 0 2 0;
#X connect 2 0 3 0;
#X connect 3 0 6 0;
#X connect 3 0 7 0;
#X connect 3 0 14 0;
#X connect 3 0 17 0;
#X connect 3 0 18 0;
#X connect 3 0 20 0;
#X connect 3 0 28 0;
#X connect 3 0 29 0;
#X connect 3 0 30 0;
#X connect 3 0 32 0;
#X connect 3 0 31 0;
#X connect 6 0 8 0;
#X connect 7 0 9 0;
#X connect 8 0 5 0;
#X connect 9 0 22 0;
#X connect 10 0 13 0;
#X connect 11 0 15 0;
#X connect 12 0 16 0;
#X connect 14 0 10 0;
#X connect 17 0 11 0;
#X connect 18 0 12 0;
#X connect 19 0 21 0;
#X connect 20 0 19 0;
#X connect 23 0 33 0;
#X connect 24 0 34 0;
#X connect 25 0 35 0;
#X connect 26 0 36 0;
#X connect 27 0 37 0;
#X connect 28 0 23 0;
#X connect 29 0 24 0;
#X connect 30 0 25 0;
#X connect 31 0 26 0;
#X connect 32 0 27 0;
#X restore 55 80 pd routing;
#N canvas 222 567 677 338 output 0;
#X obj 681 194 outlet;
#X obj 53 65 r \$0-track-prev;
#X obj 164 65 r \$0-track-next;
#X obj 275 65 r \$0-cycle;
#X obj 351 65 r \$0-marker-set;
#X obj 462 65 r \$0-marker-prev;
#X obj 580 65 r \$0-marker-next;
#X obj 698 65 r \$0-trans-back;
#X obj 809 65 r \$0-trans-forward;
#X obj 941 65 r \$0-trans-stop;
#X obj 1052 65 r \$0-trans-play;
#X obj 1163 65 r \$0-trans-rec;
#X msg 53 94 track-prev;
#X msg 164 94 track-next;
#X msg 275 94 cycle;
#X msg 351 94 marker-set;
#X msg 462 94 marker-prev;
#X msg 580 94 marker-next;
#X msg 698 94 trans-back;
#X msg 809 94 trans-forward;
#X msg 941 94 trans-stop;
#X msg 1052 94 trans-play;
#X msg 1163 94 trans-rec;
#X connect 1 0 12 0;
#X connect 2 0 13 0;
#X connect 3 0 14 0;
#X connect 4 0 15 0;
#X connect 5 0 16 0;
#X connect 6 0 17 0;
#X connect 7 0 18 0;
#X connect 8 0 19 0;
#X connect 9 0 20 0;
#X connect 10 0 21 0;
#X connect 11 0 22 0;
#X connect 12 0 0 0;
#X connect 13 0 0 0;
#X connect 14 0 0 0;
#X connect 15 0 0 0;
#X connect 16 0 0 0;
#X connect 17 0 0 0;
#X connect 18 0 0 0;
#X connect 19 0 0 0;
#X connect 20 0 0 0;
#X connect 21 0 0 0;
#X connect 22 0 0 0;
#X restore 55 109 pd output;
#X obj 55 138 outlet;
#X text 55 6 dried/nano-transport CC for the transport on the the
Korg nanoKontrol 2;
#X text 55 51 ...it's all just buttons;
#X obj 77 277 bng 15 250 50 0 empty \$0-track-prev < 5 20 0 10 -262144
-1 -1;
#X obj 121 277 bng 15 250 50 0 empty \$0-track-next > 5 20 0 10 -262144
-1 -1;
#X text 87 248 track;
#X obj 77 315 bng 15 250 50 0 empty \$0-cycle cycle 0 20 0 10 -262144
-1 -1;
#X obj 163 315 bng 15 250 50 0 empty \$0-marker-set set 0 20 0 10 -262144
-1 -1;
#X obj 202 315 bng 15 250 50 0 empty \$0-marker-prev < 5 20 0 10 -262144
-1 -1;
#X obj 241 315 bng 15 250 50 0 empty \$0-marker-next > 5 20 0 10 -262144
-1 -1;
#X text 186 288 marker;
#X obj 77 353 bng 30 250 50 0 empty \$0-trans-back « 10 10 0 15 -262144
-1 -1;
#X obj 116 353 bng 30 250 50 0 empty \$0-trans-forward » 10 10 0 15
-262144 -1 -1;
#X obj 155 353 bng 30 250 50 0 empty \$0-trans-stop ◾ 10 10 0 15
-262144 -1 -1;
#X obj 194 353 bng 30 250 50 0 empty \$0-trans-play ▶ 10 10 0 15
-262144 -1 -1;
#X obj 233 353 bng 30 250 50 0 empty \$0-trans-rec ● 10 10 0 15 -262144
-1 -1;
#X connect 1 0 2 0;
#X coords 0 -1 1 1 200 150 2 70 241;
