#N canvas 996 399 450 338 12;
#X obj 18 18 inlet;
#X obj 82 18 inlet;
#X obj 146 18 inlet;
#X obj 18 192 outlet;
#X msg 50 163 \$1 0;
#X obj 18 47 pack f f \$1;
#X text 18 220 noteon-to-mono: quick-n-dirty mono synth. send pitch/value
pairs and have them converted to the appropriate note-on / note-off
sequences. notes sustain until next noteon or specified max duration.
;
#X obj 18 76 t l b;
#X msg 50 105 flush;
#X obj 50 134 pipe f f 2500;
#X connect 0 0 5 0;
#X connect 1 0 5 1;
#X connect 2 0 5 2;
#X connect 4 0 3 0;
#X connect 5 0 7 0;
#X connect 7 0 9 0;
#X connect 7 0 3 0;
#X connect 7 1 8 0;
#X connect 8 0 9 0;
#X connect 9 0 4 0;
