#N canvas 732 561 450 300 12;
#X obj 16 5 import mrpeach;
#X obj 16 179 udpreceive 8000;
#X obj 16 208 unpackOSC;
#X obj 16 237 pipelist;
#X obj 16 34 loadbang;
#X obj 16 63 f \$1;
#X obj 16 92 select 0;
#X msg 16 121 8000;
#X msg 16 150 port \$1;
#X text 104 34 receive and parse OSC messages over UDP on port \$1
(default 8000), f 38;
#X obj 16 266 outlet;
#X connect 1 0 2 0;
#X connect 2 0 3 0;
#X connect 2 1 3 1;
#X connect 3 0 10 0;
#X connect 4 0 5 0;
#X connect 5 0 6 0;
#X connect 6 0 7 0;
#X connect 6 1 8 0;
#X connect 7 0 8 0;
#X connect 8 0 1 0;
