#N canvas 1098 108 413 246 12;
#X obj 28 -27 inlet;
#X obj 28 93 outlet;
#X text 28 -64 pool;
#X obj 178 87 outlet;
#X obj 178 61 r \$0-end;
#N canvas 1160 492 450 369 routing 0;
#X obj 35 3 inlet;
#X obj 35 221 bng 15 250 50 0 empty empty empty 17 7 0 10 -262144 -1
-1;
#X obj 35 32 route bang;
#X obj 102 60 route start 1 stop 0 pause set;
#X obj 274 109 route loop noloop;
#X msg 274 138 1;
#X msg 332 138 0;
#X obj 235 185 spigot;
#X text 283 184 if loop \, loop;
#X obj 201 158 r \$0-end;
#X obj 35 311 outlet;
#X obj 67 285 s \$0-start;
#X obj 35 245 t b b;
#X obj 171 111 s \$0-panic;
#X obj 171 89 bng 15 250 50 0 empty empty empty 17 7 0 10 -262144 -1
-1;
#X text 145 286 preflight comes first;
#X connect 0 0 2 0;
#X connect 1 0 12 0;
#X connect 2 0 1 0;
#X connect 2 1 3 0;
#X connect 3 0 1 0;
#X connect 3 1 1 0;
#X connect 3 2 14 0;
#X connect 3 3 14 0;
#X connect 3 4 14 0;
#X connect 3 5 4 0;
#X connect 4 0 5 0;
#X connect 4 1 6 0;
#X connect 5 0 7 1;
#X connect 6 0 7 1;
#X connect 7 0 1 0;
#X connect 9 0 7 0;
#X connect 12 0 10 0;
#X connect 12 1 11 0;
#X connect 14 0 13 0;
#X restore 28 3 pd routing;
#N canvas 1288 618 450 323 set-bang-count 0;
#X obj 73 78 f \$3;
#X obj 19 165 s \$0-bang-count;
#X obj 19 136 dried/rand-range;
#X obj 19 19 inlet;
#X obj 19 48 t b b;
#X obj 128 108 max \$4;
#X text 86 10 determine how many bangs will be in this poolbetween
\$3 and \$4(omit \$4 to use \$3 verbatim);
#X connect 0 0 5 0;
#X connect 0 0 2 1;
#X connect 2 0 1 0;
#X connect 3 0 4 0;
#X connect 4 0 2 0;
#X connect 4 1 0 0;
#X connect 5 0 2 2;
#X restore 178 35 pd set-bang-count;
#X obj 178 9 r \$0-start;
#N canvas 1109 577 450 300 bangs 0;
#X obj 89 16 inlet;
#X obj 89 248 outlet;
#X obj 89 131 t b b;
#X obj 89 190 pipe;
#X obj 117 72 r \$0-bang-count;
#X obj 89 102 Uzi;
#X obj 89 45 t b f;
#X obj 121 160 dried/rand-range 0;
#X obj 89 219 bang;
#X obj 12 45 r \$0-panic;
#X msg 12 74 pause;
#X text 150 11 sends \$0-bang-count number of bangsat random times
within the incomingduration;
#X connect 0 0 6 0;
#X connect 2 0 3 0;
#X connect 2 1 7 0;
#X connect 3 0 8 0;
#X connect 4 0 5 1;
#X connect 5 0 2 0;
#X connect 6 0 5 0;
#X connect 6 1 7 2;
#X connect 7 0 3 1;
#X connect 8 0 1 0;
#X connect 9 0 10 0;
#X connect 10 0 5 0;
#X restore 28 63 pd bangs;
#N canvas 1225 330 450 300 pool-length 0;
#X obj 38 66 inlet;
#X obj 38 243 outlet;
#X obj 38 111 dried/rand-range \$1 \$2;
#X obj 83 145 t b f;
#X obj 83 174 delay;
#X obj 83 203 s \$0-end;
#X obj 208 111 r \$0-panic;
#X msg 208 140 stop;
#X text 38 9 outputs length of this pool at its startand sends \$0-end
at its end;
#X connect 0 0 2 0;
#X connect 2 0 1 0;
#X connect 2 0 3 0;
#X connect 3 0 4 0;
#X connect 3 1 4 1;
#X connect 4 0 5 0;
#X connect 6 0 7 0;
#X connect 7 0 4 0;
#X restore 28 33 pd pool-length;
#X text 123 -53 Pd version of PoolTime's Pool class;
#X connect 0 0 5 0;
#X connect 4 0 3 0;
#X connect 5 0 9 0;
#X connect 7 0 6 0;
#X connect 8 0 1 0;
#X connect 9 0 8 0;
