#N canvas 654 225 598 300 10;
#X obj 93 113 noise~;
#X obj 121 135 *~;
#X obj 121 157 bp~ 1000 10;
#X obj 136 113 ead~ 1 1;
#X obj 239 73 random 5000;
#X obj 239 95 + 10000;
#X obj 324 72 random 50;
#X obj 324 94 + 50;
#X obj 121 179 *~ 2.5;
#X obj 121 201 clip~ -1 1;
#X obj 121 223 outlet~;
#X obj 136 48 t b b;
#X obj 136 8 inlet;
#X obj 243 10 inlet;
#X connect 0 0 1 0;
#X connect 1 0 2 0;
#X connect 2 0 8 0;
#X connect 3 0 1 1;
#X connect 4 0 5 0;
#X connect 5 0 2 1;
#X connect 6 0 7 0;
#X connect 7 0 2 2;
#X connect 8 0 9 0;
#X connect 9 0 10 0;
#X connect 11 0 3 0;
#X connect 11 1 4 0;
#X connect 11 1 6 0;
#X connect 12 0 11 0;
#X connect 13 0 5 1;
