#N canvas 2939 399 450 389 12;
#X obj 27 29 inlet~;
#X obj 27 87 outlet~;
#X obj 159 42 hsl 69 16 -1 1 0 0 empty empty empty -2 -8 0 10 -262144
-1 -1 3400 1;
#X msg 154 80 \$1 50;
#X obj 154 109 vline~;
#X text 15 232 simple panning stage for graphical patches;
#X obj 27 58 dried/pan~;
#X obj 37 97 outlet~;
#X obj 292 57 loadbang;
#X msg 292 86 0;
#X connect 0 0 6 0;
#X connect 2 0 3 0;
#X connect 3 0 4 0;
#X connect 4 0 6 1;
#X connect 6 0 1 0;
#X connect 6 1 7 0;
#X connect 8 0 9 0;
#X connect 9 0 2 0;
#X coords 0 -1 1 1 78 40 1 154 20;
