#N canvas 317 361 942 220 12;
#X obj 33 26 inlet~;
#X obj 214 26 inlet;
#X obj 395 26 inlet;
#X obj 576 26 inlet;
#X obj 33 84 outlet~;
#X obj 33 55 expr~ pow((1 - $v1) \, 2) * $f2 + 2 * (1 - $v1) * $v1
* $f3 + pow($v1 \, 2) * $f4, f 78;
#X text 239 102 quadratic-bezier~signal inlet is progress (t) \, 0-1other
inlets are control values;
#X connect 0 0 5 0;
#X connect 1 0 5 1;
#X connect 2 0 5 2;
#X connect 3 0 5 3;
#X connect 5 0 4 0;
