#N canvas 208 84 1390 166 12;
#X obj 33 26 inlet~;
#X obj 271 26 inlet;
#X obj 510 26 inlet;
#X obj 749 26 inlet;
#X obj 988 26 inlet;
#X obj 33 84 outlet~;
#X obj 1227 26 inlet;
#X text 239 103 quintic-bezier~signal inlet is progress (t) \, 0-1other
inlets are control values;
#X obj 33 55 expr~ (pow(1 - $v1 \, 4) * $f2) + (4 * pow(1 - $v1 \,
3) * $v1 * $f3) + (6 * pow((1 - $v1) \, 2) * pow($v1 \, 2) * $f4) +
(4 * (1 - $v1) * pow($v1 \, 3) * $f5) + (pow($v1 \, 4) * $f6), f 171
;
#X connect 0 0 8 0;
#X connect 1 0 8 1;
#X connect 2 0 8 2;
#X connect 3 0 8 3;
#X connect 4 0 8 4;
#X connect 6 0 8 5;
#X connect 8 0 5 0;
