#N canvas 496 312 450 300 10;
#X obj 22 81 inlet;
#X text 22 35 inlet: bang - output new number;
#X text 22 57 args: 1 - lo \, 2 - hi;
#X obj 22 103 route bang list;
#X obj 22 225 random;
#X obj 22 247 + \$1;
#X obj 22 269 outlet;
#X obj 55 159 f \$2;
#X obj 55 181 - \$1;
#X obj 55 203 + 1;
#X text 22 13 dried/rand-range: outputs a random int between two ints
;
#X obj 196 78 inlet;
#X obj 248 77 inlet;
#X obj 22 128 t b b;
#X connect 0 0 3 0;
#X connect 3 0 13 0;
#X connect 4 0 5 0;
#X connect 5 0 6 0;
#X connect 7 0 8 0;
#X connect 8 0 9 0;
#X connect 9 0 4 1;
#X connect 11 0 8 1;
#X connect 11 0 5 1;
#X connect 12 0 7 1;
#X connect 13 0 4 0;
#X connect 13 1 7 0;
