#N canvas 2590 303 986 652 12;
#N canvas 0 0 450 300 running-range 0;
#X obj 475 238 f;
#X obj 571 237 t b b;
#X msg 603 266 stop;
#X msg 475 208 -8.38661e+06;
#X obj 571 295 delay 5000;
#X obj 571 179 >;
#X obj 571 208 select 1;
#X obj 221 80 t f f;
#X floatatom 410 334 5 0 0 0 - - -, f 5;
#X obj 105 248 f;
#X obj 201 247 t b b;
#X msg 233 276 stop;
#X obj 201 305 delay 5000;
#X obj 201 218 select 1;
#X floatatom 40 344 5 0 0 0 - - -, f 5;
#X obj 41 187 min;
#X msg 105 218 8.38861e+06;
#X obj 411 177 max;
#X obj 201 189 <;
#X obj 13 26 inlet;
#X obj 475 111 loadbang;
#X text 374 17 running-max (right) takes a stream of values and returns
the greatest received in the past period. min (left) is same principle.
together they make the range;
#X obj 158 390 outlet;
#X obj 309 380 outlet;
#X connect 0 0 5 1;
#X connect 0 0 17 1;
#X connect 1 0 4 0;
#X connect 1 1 2 0;
#X connect 2 0 4 0;
#X connect 3 0 0 0;
#X connect 4 0 3 0;
#X connect 5 0 6 0;
#X connect 6 0 1 0;
#X connect 7 0 17 0;
#X connect 7 0 15 0;
#X connect 7 1 5 0;
#X connect 7 1 18 0;
#X connect 9 0 15 1;
#X connect 9 0 18 1;
#X connect 10 0 12 0;
#X connect 10 1 11 0;
#X connect 11 0 12 0;
#X connect 12 0 16 0;
#X connect 13 0 10 0;
#X connect 15 0 9 0;
#X connect 15 0 14 0;
#X connect 15 0 22 0;
#X connect 16 0 9 0;
#X connect 17 0 0 0;
#X connect 17 0 8 0;
#X connect 17 0 23 0;
#X connect 18 0 13 0;
#X connect 19 0 7 0;
#X connect 20 0 3 0;
#X connect 20 0 16 0;
#X restore 93 225 pd running-range;
#X obj 31 167 inlet;
#X obj 31 196 t f b f;
#X obj 93 284 expr ($f3 - $f2) * $f1 + $f2;
#X obj 31 374 moses;
#X text 22 11 relative moses;
#X text 22 40 like moses but the split point is a percentage of a running
min-max of the incoming stream;
#X obj 359 211 inlet;
#X obj 359 269 s \$0-split;
#X obj 39 255 r \$0-split;
#X obj 551 211 inlet;
#X obj 551 269 s \$0-period;
#X obj 359 240 dried-utils/clamp 0 1;
#X obj 551 240 max 0;
#X obj 437 165 loadbang;
#X obj 401 211 \$1;
#X obj 522 211 \$2;
#X text 33 121 inlet 1: incoming stream to split;
#X text 346 125 inlet 2 & arg \$1: split point within the stream (0-1)
;
#X text 555 155 inlet 3 & arg \$2: debounce period during which the
min / max stays active;
#X obj 31 403 outlet;
#X obj 86 403 outlet;
#X connect 0 0 3 1;
#X connect 0 1 3 2;
#X connect 1 0 2 0;
#X connect 2 0 4 0;
#X connect 2 1 3 0;
#X connect 2 2 0 0;
#X connect 3 0 4 1;
#X connect 4 0 20 0;
#X connect 4 1 21 0;
#X connect 7 0 12 0;
#X connect 9 0 3 0;
#X connect 10 0 13 0;
#X connect 12 0 8 0;
#X connect 13 0 11 0;
#X connect 14 0 15 0;
#X connect 14 0 16 0;
#X connect 15 0 12 0;
#X connect 16 0 13 0;
