#N canvas 248 300 450 300 10;
#X obj 38 13 inlet;
#X obj 38 258 outlet;
#X obj 89 225 / 2;
#X text 118 201 <-- wrapping;
#X obj 83 66 t b f;
#X text 218 15 a new freq which is a random multiple;
#X text 218 59 freq or the input freq.;
#X text 218 91 \$1 - start pitch & wrap point;
#X text 218 113 \$2 - lower harmonic limit;
#X text 218 135 \$3 - higher harmonic limit;
#X obj 38 153 * \$1;
#X obj 38 201 moses \$1;
#X obj 38 129 + \$2;
#X obj 38 35 route bang float;
#X obj 150 12 loadbang;
#X obj 150 34 f \$3;
#X obj 150 56 - \$2;
#X obj 150 78 + 1;
#X obj 38 105 random;
#X text 218 37 (between \$2 and \$3) of the previous;
#X connect 0 0 13 0;
#X connect 2 0 11 0;
#X connect 4 0 18 0;
#X connect 4 1 10 1;
#X connect 10 0 11 0;
#X connect 11 0 1 0;
#X connect 11 0 10 1;
#X connect 11 1 2 0;
#X connect 12 0 10 0;
#X connect 13 0 18 0;
#X connect 13 1 4 0;
#X connect 14 0 15 0;
#X connect 15 0 16 0;
#X connect 16 0 17 0;
#X connect 17 0 18 1;
#X connect 18 0 12 0;
