#N canvas 1210 300 450 300 12;
#X obj 6 26 inlet;
#X obj 6 55 random 100;
#X obj 6 84 moses 30;
#X obj 6 113 b;
#X obj 6 142 outlet;
#X obj 93 55 f \$1;
#X obj 93 26 inlet;
#X obj 145 26 loadbang;
#X text 15 183 only bang sometimes;
#X text 15 212 inlet & argument: how often it should happen (0-1);
#X obj 93 84 * 100;
#X connect 0 0 1 0;
#X connect 1 0 2 0;
#X connect 2 0 3 0;
#X connect 3 0 4 0;
#X connect 5 0 10 0;
#X connect 6 0 5 0;
#X connect 7 0 5 0;
#X connect 10 0 2 1;
