#N canvas 3063 285 484 345 10;
#X obj 38 13 inlet;
#X obj 38 298 outlet;
#X obj 84 60 t b f;
#X text 238 121 \$1 - start pitch & wrap point;
#X obj 38 35 route bang float;
#X obj 180 62 loadbang;
#X obj 180 84 f \$3;
#X text 238 15 a new freq which is a random interval;
#X text 238 37 above or below the previous freq;
#X text 238 59 (or the input freq) using a given;
#X text 238 84 EDO and octave size;
#X text 238 143 \$2 - divisions of the octave;
#X text 238 165 \$3 - octave size (1 = octave);
#X obj 111 179 f \$1;
#X obj 111 204 ftom;
#X obj 38 233 +;
#X obj 38 258 mtof;
#X obj 38 105 dried/rand-range 1 \$2;
#N canvas 3241 462 450 348 dir 0;
#X obj 12 12 inlet;
#X obj 12 194 outlet;
#X obj 39 86 select 0;
#X msg 39 111 -1;
#X obj 12 36 t f b;
#X obj 12 170 *;
#X obj 39 61 random 2;
#X connect 0 0 4 0;
#X connect 2 0 3 0;
#X connect 2 1 5 1;
#X connect 3 0 5 1;
#X connect 4 0 5 0;
#X connect 4 1 6 0;
#X connect 5 0 1 0;
#X connect 6 0 2 0;
#X restore 38 204 pd dir;
#X obj 121 13 inlet;
#X obj 161 13 inlet;
#X obj 201 13 inlet;
#X obj 38 60 t b b;
#X obj 3 104 bng 15 250 50 0 empty empty empty 17 7 0 10 #fcfcfc #000000
#000000;
#X obj 38 130 / \$2;
#X obj 38 155 * 12;
#X obj 180 106 select 0;
#X obj 111 155 loadbang;
#X obj 38 179 * 1;
#X connect 0 0 4 0;
#X connect 2 0 17 0;
#X connect 2 1 13 0;
#X connect 4 0 22 0;
#X connect 4 1 2 0;
#X connect 5 0 6 0;
#X connect 6 0 26 0;
#X connect 13 0 14 0;
#X connect 14 0 15 1;
#X connect 15 0 16 0;
#X connect 16 0 1 0;
#X connect 17 0 24 0;
#X connect 18 0 15 0;
#X connect 19 0 13 1;
#X connect 20 0 17 2;
#X connect 20 0 24 1;
#X connect 21 0 6 0;
#X connect 22 0 17 0;
#X connect 22 1 13 0;
#X connect 23 0 22 0;
#X connect 24 0 25 0;
#X connect 25 0 28 0;
#X connect 26 1 28 1;
#X connect 27 0 13 0;
#X connect 28 0 18 0;
