#N canvas 31 458 450 323 10;
#X obj 46 30 inlet~;
#X obj 46 223 outlet~;
#X obj 146 30 inlet;
#X obj 146 68 select \$1;
#X obj 46 175 *~;
#X msg 146 106 1 10;
#X msg 209 106 0 10;
#X obj 146 144 line~;
#X text 227 24 spigot~ that opens when sent itscreation argument \,
closes whenit gets anything else.;
#X connect 0 0 4 0;
#X connect 2 0 3 0;
#X connect 3 0 5 0;
#X connect 3 1 6 0;
#X connect 4 0 1 0;
#X connect 5 0 7 0;
#X connect 6 0 7 0;
#X connect 7 0 4 1;
