#N canvas 2209 599 450 300 12;
#X obj 26 142 env~;
#X obj 26 171 dbtorms;
#X obj 26 229 select 1;
#X obj 26 200 > 0.001;
#X obj 26 113 inlet~;
#X obj 26 258 outlet;
#X text 26 10 s2b~: schmitt-to-bang;
#X text 26 39 converts a single-sample schmitt trigger to a bang;
#X text 26 68 (should work for any schmitt triggers less than one block
size \, but not tested like that!);
#X text 95 113 more consistent than edge~ and vanilla-friendly;
#X connect 0 0 1 0;
#X connect 1 0 3 0;
#X connect 2 0 5 0;
#X connect 3 0 2 0;
#X connect 4 0 0 0;
