#N canvas 2332 214 450 300 12;
#X obj 18 94 inlet;
#X obj 18 262 outlet;
#X obj 18 163 spigot 1;
#X obj 85 194 t b b;
#X msg 101 136 0;
#X msg 71 136 1;
#X obj 85 223 delay \$1;
#X text 18 11 dried/throttle;
#X text 18 40 rate control incoming messages \, only allowing one through
every \$1ms;
#X connect 0 0 2 0;
#X connect 2 0 1 0;
#X connect 2 0 3 0;
#X connect 3 0 6 0;
#X connect 3 1 4 0;
#X connect 4 0 2 1;
#X connect 5 0 2 1;
#X connect 6 0 5 0;
