#N canvas 169 416 450 300 12;
#X obj 17 112 outlet~;
#X obj 17 83 expr~ (if ($v1 > 0.5 \, 1 - $v1 \, $v1) - 0.25) * 4;
#X text 17 141 a simple aliased triangle wave (-1 to 1);
#X obj 17 54 phasor~ \$1;
#X obj 17 25 inlet~;
#X obj 84 25 inlet;
#X connect 1 0 0 0;
#X connect 3 0 1 0;
#X connect 4 0 3 0;
#X connect 5 0 3 1;
