#N canvas 236 156 753 762 12;
#X obj 36 42 inlet~;
#X obj 150 42 inlet;
#X obj 36 431 outlet~;
#X obj 150 326 vline~;
#X obj 150 72 select 0;
#X obj 203 101 t f f, f 14;
#X obj 203 270 pack f f f f, f 14;
#X msg 150 299 0 \$1;
#X text 228 234 V A D S;
#X text 132 211 R;
#X text 352 240 sustain is rel to vol (ie S * V);
#X text 362 13 Vol A D S R;
#X obj 234 211 f 7;
#X obj 266 211 f 50;
#X obj 298 211 * 0.8;
#X obj 362 42 inlet;
#X obj 150 101 bng 15 250 50 0 empty empty empty 17 7 0 10 #fcfcfc
#000000 #000000;
#X obj 150 211 f 250;
#X msg 203 298 \$1 \$2 \, \$4 \$3 \$2;
#X text 218 320 V A \, S D A;
#X obj 150 367 *~;
#X msg 362 309 \$1 5;
#X obj 362 338 vline~;
#X obj 362 87 route v a d s r;
#X obj 36 401 *~;
#X text 23 12 signal to env;
#X text 147 13 velocity;
#X obj 362 211 f 1;
#X obj 234 134 loadbang;
#X obj 150 396 pow~ 2;
#X obj 592 116 s \$0-r;
#X obj 162 178 r \$0-r;
#X obj 538 116 s \$0-s;
#X obj 321 178 r \$0-s;
#X obj 484 116 s \$0-d;
#X obj 268 178 r \$0-d;
#X obj 430 116 s \$0-a;
#X obj 215 178 r \$0-a;
#X obj 362 116 s \$0-vol;
#X obj 374 178 r \$0-vol;
#X connect 0 0 24 0;
#X connect 1 0 4 0;
#X connect 3 0 20 0;
#X connect 4 0 16 0;
#X connect 4 1 5 0;
#X connect 5 0 6 0;
#X connect 5 1 14 0;
#X connect 6 0 18 0;
#X connect 7 0 3 0;
#X connect 12 0 6 1;
#X connect 13 0 6 2;
#X connect 14 0 6 3;
#X connect 15 0 23 0;
#X connect 16 0 17 0;
#X connect 17 0 7 0;
#X connect 18 0 3 0;
#X connect 20 0 29 0;
#X connect 21 0 22 0;
#X connect 22 0 20 1;
#X connect 23 0 38 0;
#X connect 23 1 36 0;
#X connect 23 2 34 0;
#X connect 23 3 32 0;
#X connect 23 4 30 0;
#X connect 24 0 2 0;
#X connect 27 0 21 0;
#X connect 28 0 12 0;
#X connect 28 0 13 0;
#X connect 28 0 27 0;
#X connect 29 0 24 1;
#X connect 31 0 17 1;
#X connect 33 0 14 1;
#X connect 35 0 13 0;
#X connect 37 0 12 0;
#X connect 39 0 27 0;
