#N canvas 1155 277 546 377 12;
#X obj 80 -231 inlet~;
#X obj 146 -141 delread~ \$0-widening 20;
#X obj 146 -180 delwrite~ \$0-widening 50;
#X obj 146 -43 *~ -1;
#X obj 146 -107 lop~ 2500;
#X obj 80 -6 *~ 0.5;
#X obj 80 23 outlet~;
#X obj 146 -6 *~ 0.5;
#X obj 146 23 outlet~;
#X obj 448 -111 select 0;
#X msg 448 -82 1;
#X obj 448 -140 f \$1;
#X obj 448 -169 loadbang;
#X obj 146 -78 *~;
#X obj 448 -53 sig~;
#X text 449 -192 width arg;
#X obj 357 -176 inlet;
#X obj 357 -118 vline~;
#X text 342 -200 width inlet;
#X msg 357 -147 \$1 5;
#X connect 0 0 2 0;
#X connect 0 0 7 0;
#X connect 0 0 5 0;
#X connect 1 0 4 0;
#X connect 3 0 7 0;
#X connect 4 0 13 0;
#X connect 5 0 6 0;
#X connect 7 0 8 0;
#X connect 9 0 10 0;
#X connect 9 1 14 0;
#X connect 10 0 14 0;
#X connect 11 0 9 0;
#X connect 12 0 11 0;
#X connect 13 0 3 0;
#X connect 13 0 5 0;
#X connect 14 0 13 1;
#X connect 16 0 19 0;
#X connect 17 0 13 1;
#X connect 19 0 17 0;
